<?xml version="1.0" encoding="utf-8"?>
<!-- Generator: Adobe Illustrator 27.5.0, SVG Export Plug-In . SVG Version: 6.00 Build 0)  -->
<svg version="1.1" id="Layer_1" xmlns="http://www.w3.org/2000/svg" xmlns:xlink="http://www.w3.org/1999/xlink" x="0px" y="0px"
	 viewBox="0 0 690 106.8" style="enable-background:new 0 0 690 106.8;" xml:space="preserve">
<style type="text/css">
	.st0{fill:#FFFFFF;}
</style>
<g>
	<g>
		<path class="st0" d="M688.5,55.3c1.6,5.5,2,11,0.8,16.2c-2.1,9.2-0.1,18.4-1.4,27.6c-0.2,1.8-0.7,3.7-1.3,5.5
			c-0.1,0.3-1.2,0.7-1.9,0.7c-4,0.2-8,0.3-12,0.4c-5.2,0.1-10.4,0.3-15.5,0.3c-7.3,0-14.6-0.4-21.9-0.3c-6.1,0-12.1,0.5-18.2,0.5
			c-11.3,0-22.7-1-33.8-0.1c-11,0.8-22.1,1.1-32.8,0.4c-18.6-1.3-37.1-0.7-55.6-0.4c-9,0.1-18.1,1.1-27.1,0.5
			c-9.9-0.7-19.9-0.3-29.7-1c-4.3-0.3-8.7-1.1-12.7-0.5c-9.1,1.3-18.3,1-27.3,0.7c-33.1-1-66.1,0.3-99.2-0.6
			c-8-0.2-16.1-1.1-24.1-0.5c-19.9,1.5-39.8,0.5-59.7,0.7c-19.9,0.2-39.8,0.1-59.7,0c-6.8,0-13.6-1.1-20.3-0.7
			c-26.2,1.7-52.5,0.2-78.8,0.9c-5.7,0.1-11.5,0.8-17.2,0.7c-3.3-0.1-6.4,0.2-9.7,0.1c-8.4-0.2-16.7-0.5-25.1-0.9
			c-0.6,0-1.4-0.8-1.5-1.2c-2.7-9.5-0.3-19.1-1.8-28.6C0.4,70.7-0.1,66,0,61.3c0.1-3.3,1.5-6.7,1.6-10l-1.2-11
			c1.7-6.7,0.8-13.3,1.4-19.9c0.2-1.7,1-3.3,1.1-5c0-1.3-1.2-2.6-1-3.9C2.1,9.5,3,7.6,3.6,5.8c0.3-0.8,0.7-1.7,0.6-2.5
			c0-1.2,0.3-1.8,2.6-1.8C13.5,1.3,20.2,0.9,27,0.7c0,0.1,0,0.2,0,0.3C36.2,1,45.4,1.2,54.6,1.2c6.4,0,12.8-0.6,19.2-0.6
			c11.4,0,22.8,0.8,34,0.1c10.6-0.7,21.2-1,31.6-0.4c19.2,1.3,38.3,0.5,57.4,0.5c8.8,0,17.6-0.7,26.4-0.6c9.7,0.1,19.4,0.6,29.1,0.9
			c4.5,0.2,8.9,0.7,13.4,0.6c9.1-0.1,18.3-1,27.4-0.8c33.1,1,66.3-0.1,99.4,0.5c8,1.5,16.2,1.3,24.2,0.7c19.7-1.5,39.3-0.5,59-0.7
			c19.8-0.2,39.5-0.3,59.3,0.1c7.1,0.2,14.3,1.1,21.3,0.6c27-1.9,54-0.2,81-0.9c4.6-0.1,9.3-0.9,13.9-0.7c5.9,0.3,11.7-0.2,17.6,0
			c6,0.2,12,0.5,18.1,0.8c0.4,0,1.1,0.3,1.1,0.6c0.5,1.6,1.4,3.3,1.3,4.9c-0.2,2.3-1.3,4.6-1.6,6.9c-0.3,1.8-0.1,3.7,0,5.5
			c0.1,1.7,0.5,3.3,0.5,5c0.2,4.1-0.6,8.2,0.5,12.2c1,3.5,1.9,7.1,0.8,10.4C687.2,53.8,687,50.1,688.5,55.3z M683.4,31.8
			c0-3.2,0.3-6.3,1.1-9.5c1-3.9-0.1-8.1-0.2-12.1c0-0.2,0.3-0.5,0.6-0.7c0.5-0.5,1.3-0.9,1.4-1.4c0.2-1.1,0.1-2.2,0.2-3.4
			c0.1-0.9-0.4-1.3-1.9-1.2c-4.2,0.3-8.4,0.6-12.7,0.7c-4.5,0-9.1-0.3-13.6-0.4c-1,0-1.9-0.1-2.9,0c-2.2,0.2-4.4,0.7-6.6,0.6
			c-30.5-0.8-61.1,0.8-91.6-0.9c-6.2-0.3-12.5,0.4-18.8,0.5c-9,0.2-18.1,0.2-27.1,0.3c-47.1,0.6-94.2-1.2-141.4,0.6
			c-9.3,0.4-18.8-0.3-28.2-0.5c-8.5-0.1-17,0.1-25.4-0.1c-15.5-0.4-31,0.3-46.5-1C263.6,2.8,257.3,3,251,3.7
			c-9.2,1.1-18.6,0.1-28,1.1c-7.5,0.8-15.3-0.1-23-0.5C185.3,3.7,170.5,4,155.8,4c-5.5,0-11.1,0.6-16.5,0.8
			c-10.5,0.3-21,0.5-31.7-0.4c-11-0.9-22.4,0-33.5-0.1c-5.7,0-11.4-0.5-17.1-0.5c-7.3-0.1-14.7,0-22,0c-0.5,0-1,0.2-1.5,0.2
			C29.1,4,24.7,4.2,20.3,4.1C15.8,4,11.4,3.7,7,3.5C6.6,3.5,5.9,4,5.9,4.2c-0.5,2.9-1,5.9-1.1,8.8c-0.3,4.2,1,8.4,1.1,12.5
			c0.2,9.5,1,19,0.5,28.5l-0.1,0c0.6,6,0.3,12-0.1,18c-0.5,8.2,1.6,16.5-1.3,24.7c-0.6,1.8-0.3,3.7-0.2,5.5c0,0.4,0.8,1,1.2,1
			c3.7,0,7.5,0.1,11.1-0.3c5.4-0.6,10.7-0.7,16,0c0.9,0.1,1.9,0.1,2.8,0c2-0.2,3.9-0.5,5.9-0.6c3.7-0.1,7.4,0.1,11.1,0.1
			c27.8,0.6,55.6-0.9,83.4,0.8c5.5,0.3,11.1-0.6,16.6-0.6c27-0.1,53.9,0,80.9,0c0-0.1,0-0.1,0-0.2c5.4,0,10.7,0,16.1,0
			c23.5-0.2,46.9,0.8,70.4-0.6c9.6-0.6,19.4,0.3,29.1,0.4c9,0.1,18-0.1,26.9,0.2c15.6,0.4,31.3-0.1,46.9,1
			c5.5,0.4,11.2-0.3,16.8-0.5c9.9-0.4,19.8-0.9,29.6-1c6.8-0.1,13.7,0.5,20.5,0.6c12.9,0.2,25.9,0.3,38.8,0.3
			c8.3,0,16.6-0.5,24.9-0.9c10-0.5,20.1-0.3,30.2,0.5c10.9,0.8,22.1,0,33.1,0c5.9,0,11.9,0.6,17.8,0.6c8.1,0,16.2-0.5,24.3-0.5
			c7.7,0,15.4,0.5,23.2,0.8c2.2,0.1,3.2-0.3,2.9-1.8c-0.6-3-1.5-6-1.6-9c-0.3-10.1-0.5-39.9,1.1-44.7
			C686.1,43.4,683.3,41.8,683.4,31.8z"/>
	</g>
</g>
</svg>
