<?xml version="1.0" encoding="utf-8"?>
<!-- Generator: Adobe Illustrator 27.5.0, SVG Export Plug-In . SVG Version: 6.00 Build 0)  -->
<svg version="1.1" id="Layer_1" xmlns="http://www.w3.org/2000/svg" xmlns:xlink="http://www.w3.org/1999/xlink" x="0px" y="0px"
	 viewBox="0 0 339.7 393.2" style="enable-background:new 0 0 339.7 393.2;" xml:space="preserve">
<style type="text/css">
	.st0{fill:#FCFCFD;}
	.st1{fill:#FFFFFF;}
</style>
<g>
	<g>
		<rect x="0" y="387.2" class="st0" width="3" height="6"/>
	</g>
	<g>
		<path class="st0" d="M3,375.1H0V363h3V375.1z M3,350.9H0v-12.1h3V350.9z M3,326.6H0v-12.1h3V326.6z M3,302.4H0v-12.1h3V302.4z
			 M3,278.2H0v-12.1h3V278.2z M3,254H0v-12.1h3V254z M3,229.8H0v-12.1h3V229.8z M3,205.5H0v-12.1h3V205.5z M3,181.3H0v-12.1h3V181.3
			z M3,157.1H0V145h3V157.1z M3,132.9H0v-12.1h3V132.9z M3,108.6H0V96.5h3V108.6z M3,84.4H0V72.3h3V84.4z"/>
	</g>
	<g>
		<polygon class="st0" points="3,60.2 0,60.2 0,52.7 7.5,52.7 7.5,55.7 3,55.7 		"/>
	</g>
	<g>
		<path class="st0" d="M321.6,55.7h-12.1v-3h12.1V55.7z M297.4,55.7h-12.1v-3h12.1V55.7z M273.3,55.7h-12.1v-3h12.1V55.7z
			 M249.1,55.7H237v-3h12.1V55.7z M225,55.7h-12.1v-3H225V55.7z M200.8,55.7h-12.1v-3h12.1V55.7z M176.6,55.7h-12.1v-3h12.1V55.7z
			 M152.5,55.7h-12.1v-3h12.1V55.7z M128.3,55.7h-12.1v-3h12.1V55.7z M104.1,55.7H92.1v-3h12.1V55.7z M80,55.7H67.9v-3H80V55.7z
			 M55.8,55.7H43.7v-3h12.1V55.7z M31.7,55.7H19.6v-3h12.1V55.7z"/>
	</g>
	<g>
		<rect x="333.7" y="52.7" class="st0" width="6" height="3"/>
	</g>
</g>
<g>
	<path class="st1" d="M85.5,26.2c0,0.5,0.2,0.8,0.5,0.8c0.4,0,1-0.3,1.7-1l0.4,0.9c-0.3,0.5-0.8,1-1.4,1.5c-0.6,0.5-1.4,0.7-2.4,0.7
		c-0.7,0-1.3-0.2-1.7-0.5S82,27.7,82,27c0-0.1,0-0.3,0-0.6c0-0.3,0.1-0.5,0.1-0.6l3-21.4l-2-0.6l0.3-1.2l4.7-0.6l0.7,0.4l-3.2,23.2
		C85.5,25.9,85.5,26,85.5,26.2z"/>
	<path class="st1" d="M105.1,26c0,0.3,0.1,0.6,0.2,0.7s0.3,0.2,0.5,0.2c0.4,0,0.8-0.3,1.5-0.8l0.5,0.9c-0.2,0.4-0.7,0.8-1.4,1.3
		c-0.7,0.5-1.4,0.7-2.3,0.7c-0.7,0-1.2-0.2-1.6-0.5c-0.4-0.3-0.6-0.9-0.6-1.6l0.1-1c-0.7,0.9-1.5,1.6-2.5,2.2
		c-0.9,0.6-1.9,0.9-3,0.9c-1.8,0-3.1-0.6-4-1.9c-0.9-1.3-1.3-2.9-1.3-5c0-1.9,0.4-3.8,1.3-5.7s2.1-3.4,3.7-4.7
		c1.6-1.2,3.5-1.8,5.6-1.8c0.5,0,1.1,0.1,1.7,0.2c0.6,0.1,1.2,0.3,1.7,0.4l2-0.6l-2.1,15.6C105.1,25.7,105.1,25.9,105.1,26z
		 M101.4,11.8c-1.4,0-2.6,0.5-3.6,1.6c-1,1-1.7,2.3-2.2,3.9c-0.5,1.6-0.7,3.1-0.7,4.7c0,1.6,0.2,2.8,0.7,3.7
		c0.5,0.9,1.2,1.3,2.1,1.3c0.8,0,1.5-0.3,2.3-0.9c0.8-0.6,1.4-1.2,2-2l1.6-11.7C102.9,12,102.2,11.8,101.4,11.8z"/>
	<path class="st1" d="M115.2,20.6c-0.2,1.8-0.3,3-0.3,3.6c0,1,0.2,1.7,0.5,2.1c0.4,0.4,0.9,0.6,1.6,0.6c0.8,0,1.6-0.3,2.4-0.8
		c0.8-0.6,1.6-1.2,2.1-2l1.8-13.9h3.4l-2.1,15.6l0,0.4c0,0.3,0,0.5,0.1,0.6c0.1,0.1,0.2,0.2,0.4,0.2c0.4,0,1-0.3,1.7-1l0.4,0.9
		c-0.3,0.4-0.8,0.9-1.5,1.4c-0.7,0.5-1.5,0.8-2.4,0.8c-0.7,0-1.2-0.2-1.6-0.5c-0.4-0.4-0.5-0.8-0.5-1.5c0,0,0-0.3,0.1-1.1l0,0
		c-1.8,2.1-3.7,3.2-5.9,3.2c-1.3,0-2.3-0.3-3-1c-0.8-0.7-1.2-1.8-1.2-3.3c0-1,0.2-2.9,0.6-5.7l0.9-6.1l-1.7-1l0.2-1.3l4.5-0.6
		l0.7,0.4l-1.1,8.7L115.2,20.6z"/>
	<path class="st1" d="M139.2,11.2c1.2-0.8,2.4-1.2,3.7-1.2s2.2,0.4,2.9,1.1s1,2,1,3.7c0,0.8-0.2,2.4-0.6,4.6l-0.2,1.2l-0.2,1
		c-0.4,1.9-0.6,3.4-0.6,4.4v0.2c0,0.6,0.1,0.9,0.4,0.9c0.4,0,1-0.3,1.6-0.8l0.4,0.9c-0.3,0.4-0.7,0.8-1.5,1.3
		c-0.7,0.5-1.5,0.7-2.4,0.7c-1.5,0-2.2-0.7-2.2-2.1c0-0.7,0.2-2.1,0.6-4.3l0.2-1.2l0.1-0.8c0.5-2.6,0.7-4.4,0.7-5.6
		c0-1-0.2-1.7-0.5-2.1s-0.8-0.6-1.5-0.6c-0.8,0-1.8,0.4-2.8,1.3c-1,0.8-1.9,1.9-2.7,3.1l-1.6,11.9h-3.4l2.1-15.9l-1.7-0.8l0.3-1.3
		l4.3-0.8l0.7,0.4l-0.4,3.9C137,13,138.1,12,139.2,11.2z"/>
	<path class="st1" d="M159.5,12.2c-1,0-1.9,0.4-2.7,1.2c-0.8,0.8-1.5,1.8-1.9,3.2c-0.5,1.4-0.7,2.9-0.7,4.7c0,3.7,1.2,5.6,3.5,5.6
		c0.9,0,1.7-0.2,2.4-0.5s1.4-0.8,2.1-1.5l0.7,1.3c-0.5,0.7-1.4,1.4-2.5,2.1c-1.1,0.6-2.4,1-3.9,1c-1.9,0-3.3-0.7-4.4-2
		c-1.1-1.3-1.6-3.1-1.6-5.5c0-1.8,0.4-3.6,1.1-5.4s1.9-3.3,3.4-4.5c1.5-1.2,3.2-1.8,5.3-1.8c0.6,0,1.3,0.1,2,0.2
		c0.7,0.1,1.3,0.3,1.7,0.5l-0.9,3.5l-0.7-0.2C161.2,12.8,160.2,12.2,159.5,12.2z"/>
	<path class="st1" d="M174.3,11.3c1.2-0.8,2.5-1.3,3.7-1.3c1.3,0,2.2,0.4,2.9,1.1s1,2,1,3.7c0,0.8-0.1,1.9-0.4,3.3
		c-0.3,1.4-0.4,2.2-0.5,2.5c0,0.4-0.1,0.7-0.1,0.9c-0.1,0.3-0.1,0.5-0.1,0.7c-0.1,0.7-0.2,1.4-0.3,2.1s-0.2,1.3-0.2,1.7
		c0,0.6,0.2,1,0.5,1c0.2,0,0.5-0.1,0.7-0.2c0.2-0.1,0.5-0.4,0.9-0.7l0.4,0.9c-0.3,0.4-0.8,0.9-1.5,1.4c-0.7,0.5-1.5,0.7-2.4,0.7
		c-0.8,0-1.4-0.2-1.8-0.5s-0.5-0.9-0.5-1.6c0-0.6,0.2-1.9,0.5-3.7l0.3-1.8l0.1-0.8c0.5-2.6,0.7-4.4,0.7-5.6c0-1-0.2-1.7-0.5-2.1
		c-0.3-0.4-0.8-0.6-1.4-0.6c-0.9,0-1.9,0.4-2.9,1.3c-1.1,0.9-2,1.9-2.7,3.2l-1.5,11.7h-3.4l3.1-24.2L167,3.9l0.2-1.2l4.7-0.6
		l0.7,0.4l-1.6,11.9C172,13.2,173,12.1,174.3,11.3z"/>
	<path class="st1" d="M207.4,26c0,0.3,0.1,0.6,0.2,0.7s0.3,0.2,0.5,0.2c0.4,0,0.8-0.3,1.5-0.8L210,27c-0.2,0.4-0.7,0.8-1.4,1.3
		c-0.7,0.5-1.4,0.7-2.3,0.7c-0.7,0-1.2-0.2-1.6-0.5c-0.4-0.3-0.6-0.9-0.6-1.6l0.1-1c-0.7,0.9-1.5,1.6-2.5,2.2
		c-0.9,0.6-1.9,0.9-3,0.9c-1.8,0-3.1-0.6-4-1.9c-0.9-1.3-1.3-2.9-1.3-5c0-1.9,0.4-3.8,1.3-5.7s2.1-3.4,3.7-4.7
		c1.6-1.2,3.5-1.8,5.6-1.8c0.5,0,1.1,0.1,1.7,0.2c0.6,0.1,1.2,0.3,1.7,0.4l2-0.6l-2.1,15.6C207.4,25.7,207.4,25.9,207.4,26z
		 M203.7,11.8c-1.4,0-2.6,0.5-3.6,1.6c-1,1-1.7,2.3-2.2,3.9c-0.5,1.6-0.7,3.1-0.7,4.7c0,1.6,0.2,2.8,0.7,3.7
		c0.5,0.9,1.2,1.3,2.1,1.3c0.8,0,1.5-0.3,2.3-0.9c0.8-0.6,1.4-1.2,2-2l1.6-11.7C205.3,12,204.6,11.8,203.7,11.8z"/>
	<path class="st1" d="M219.6,12.5c0.6-0.7,1.3-1.3,2.1-1.8c0.8-0.5,1.7-0.7,2.6-0.7c0.5,0,0.9,0.1,1.1,0.2l-0.8,3.8
		c-0.3-0.2-0.9-0.4-1.6-0.4c-0.9,0-1.8,0.3-2.7,0.8c-0.9,0.6-1.6,1.3-2,2.4l-1.6,11.8h-3.4l2.1-15.9l-1.7-0.8l0.3-1.3L218,10
		l0.7,0.4l-0.2,3l-0.1,1.3C218.6,14,219.1,13.3,219.6,12.5z"/>
	<path class="st1" d="M237.1,28c-1.3,0.7-2.7,1.1-4.2,1.1c-1.5,0-2.7-0.3-3.7-1c-1-0.7-1.7-1.6-2.2-2.6s-0.7-2.3-0.7-3.5
		c0-2.1,0.4-4.1,1.3-6c0.9-1.8,2-3.3,3.5-4.4s3.1-1.6,5-1.6c1.6,0,2.8,0.4,3.6,1.1c0.8,0.7,1.2,1.7,1.2,3c0,1.6-0.6,2.9-1.8,4
		c-1.2,1.1-2.7,1.9-4.4,2.4c-1.7,0.5-3.2,0.8-4.6,0.8c-0.1,1.6,0.2,2.9,0.8,4c0.6,1.1,1.6,1.6,2.9,1.6c1,0,2-0.2,2.9-0.7
		c0.9-0.5,1.8-1.1,2.6-1.9l0.8,1.3C239.3,26.4,238.4,27.3,237.1,28z M232.6,13c-0.8,0.8-1.4,1.8-1.8,3.1c-0.4,1.2-0.7,2.4-0.8,3.6
		c1.1,0,2.2-0.3,3.3-0.7c1.2-0.4,2.1-1,2.9-1.8c0.8-0.8,1.2-1.7,1.2-2.8c0-0.8-0.2-1.5-0.6-1.9s-0.9-0.7-1.6-0.7
		C234.3,11.8,233.4,12.2,232.6,13z"/>
	<path class="st1" d="M257.2,26c0,0.3,0.1,0.6,0.2,0.7s0.3,0.2,0.5,0.2c0.4,0,0.8-0.3,1.5-0.8l0.5,0.9c-0.2,0.4-0.7,0.8-1.4,1.3
		c-0.7,0.5-1.4,0.7-2.3,0.7c-0.7,0-1.2-0.2-1.6-0.5c-0.4-0.3-0.6-0.9-0.6-1.6l0.1-1c-0.7,0.9-1.5,1.6-2.5,2.2
		c-0.9,0.6-1.9,0.9-3,0.9c-1.8,0-3.1-0.6-4-1.9c-0.9-1.3-1.3-2.9-1.3-5c0-1.9,0.4-3.8,1.3-5.7s2.1-3.4,3.7-4.7
		c1.6-1.2,3.5-1.8,5.6-1.8c0.5,0,1.1,0.1,1.7,0.2c0.6,0.1,1.2,0.3,1.7,0.4l2-0.6l-2.1,15.6C257.2,25.7,257.2,25.9,257.2,26z
		 M253.5,11.8c-1.4,0-2.6,0.5-3.6,1.6c-1,1-1.7,2.3-2.2,3.9c-0.5,1.6-0.7,3.1-0.7,4.7c0,1.6,0.2,2.8,0.7,3.7
		c0.5,0.9,1.2,1.3,2.1,1.3c0.8,0,1.5-0.3,2.3-0.9c0.8-0.6,1.4-1.2,2-2l1.6-11.7C255.1,12,254.4,11.8,253.5,11.8z"/>
</g>
</svg>
