<?xml version="1.0" encoding="utf-8"?>
<!-- Generator: Adobe Illustrator 27.5.0, SVG Export Plug-In . SVG Version: 6.00 Build 0)  -->
<svg version="1.1" id="Layer_1" xmlns="http://www.w3.org/2000/svg" xmlns:xlink="http://www.w3.org/1999/xlink" x="0px" y="0px"
	 viewBox="0 0 476 106.2" style="enable-background:new 0 0 476 106.2;" xml:space="preserve">
<style type="text/css">
	.st0{fill:#FFFFFF;}
</style>
<g>
	<g>
		<path class="st0" d="M56.5,64.8V38h11.9c1.2,0,2.3,0.3,3.4,0.8c1,0.5,2,1.2,2.7,2c0.8,0.9,1.4,1.8,1.8,2.9
			c0.4,1.1,0.6,2.1,0.6,3.2c0,1.1-0.2,2.2-0.6,3.2s-1,1.9-1.7,2.7s-1.6,1.4-2.6,1.8l6.1,10.1h-5.7l-5.5-9h-5.2v9H56.5z M61.7,51.3
			h6.5c0.7,0,1.2-0.2,1.7-0.6s0.9-0.9,1.2-1.6c0.3-0.7,0.5-1.4,0.5-2.2c0-0.8-0.2-1.6-0.5-2.2c-0.4-0.7-0.8-1.2-1.3-1.5
			c-0.5-0.4-1.1-0.6-1.7-0.6h-6.3V51.3z"/>
		<path class="st0" d="M100.3,60.3v4.6H81.6V38h18.3v4.6H86.8V49h11.3v4.2H86.8v7H100.3z"/>
		<path class="st0" d="M120.3,45c-0.2-0.2-0.5-0.4-1-0.7c-0.5-0.3-1-0.6-1.7-0.9c-0.7-0.3-1.4-0.6-2.2-0.8c-0.8-0.2-1.6-0.3-2.4-0.3
			c-1.4,0-2.5,0.3-3.2,0.8s-1.1,1.3-1.1,2.2c0,0.7,0.2,1.3,0.7,1.7s1.1,0.8,2,1.1c0.9,0.3,2,0.6,3.4,1c1.8,0.4,3.3,0.9,4.6,1.6
			c1.3,0.6,2.3,1.4,3,2.4c0.7,1,1,2.3,1,4c0,1.4-0.3,2.6-0.8,3.6c-0.5,1-1.3,1.8-2.2,2.5c-0.9,0.6-2,1.1-3.2,1.4
			c-1.2,0.3-2.5,0.4-3.8,0.4s-2.7-0.1-4-0.4c-1.3-0.3-2.6-0.7-3.8-1.2c-1.2-0.5-2.4-1.1-3.4-1.9l2.3-4.5c0.2,0.2,0.6,0.5,1.2,0.9
			c0.6,0.4,1.3,0.7,2.1,1.1c0.8,0.4,1.7,0.7,2.7,0.9c1,0.3,2,0.4,3,0.4c1.4,0,2.5-0.2,3.2-0.7c0.7-0.5,1.1-1.1,1.1-2
			c0-0.8-0.3-1.4-0.8-1.9s-1.4-0.9-2.4-1.2c-1-0.3-2.3-0.7-3.7-1.1c-1.7-0.5-3.1-1-4.2-1.6c-1.1-0.6-2-1.3-2.5-2.2
			c-0.6-0.9-0.9-2-0.9-3.4c0-1.8,0.4-3.4,1.3-4.6c0.9-1.2,2.1-2.2,3.6-2.8c1.5-0.6,3.1-1,4.9-1c1.3,0,2.4,0.1,3.6,0.4
			c1.1,0.3,2.2,0.6,3.2,1.1c1,0.5,1.9,0.9,2.6,1.5L120.3,45z"/>
		<path class="st0" d="M147.5,42.6H139v22.2h-5.2V42.6h-8.6V38h22.3V42.6z"/>
		<path class="st0" d="M158.2,38h5.3l9.9,26.8h-5.4l-2.2-6.7h-9.8l-2.2,6.7h-5.4L158.2,38z M164.5,54.5l-3.7-11.1l-3.7,11.1H164.5z"
			/>
		<path class="st0" d="M176.3,64.8V38h11.9c1.2,0,2.3,0.3,3.4,0.8c1,0.5,2,1.2,2.7,2c0.8,0.9,1.4,1.8,1.8,2.9
			c0.4,1.1,0.6,2.1,0.6,3.2c0,1.1-0.2,2.2-0.6,3.2s-1,1.9-1.7,2.7s-1.6,1.4-2.6,1.8l6.1,10.1h-5.7l-5.5-9h-5.2v9H176.3z M181.5,51.3
			h6.5c0.7,0,1.2-0.2,1.7-0.6s0.9-0.9,1.2-1.6c0.3-0.7,0.5-1.4,0.5-2.2c0-0.8-0.2-1.6-0.5-2.2c-0.4-0.7-0.8-1.2-1.3-1.5
			c-0.5-0.4-1.1-0.6-1.7-0.6h-6.3V51.3z"/>
		<path class="st0" d="M221.4,42.6h-8.5v22.2h-5.2V42.6h-8.6V38h22.3V42.6z"/>
		<path class="st0" d="M233.8,64.8V38h5.2v22.2h13.7v4.6H233.8z"/>
		<path class="st0" d="M274.5,60.3v4.6h-18.6V38h18.3v4.6h-13.1V49h11.3v4.2h-11.3v7H274.5z"/>
		<path class="st0" d="M281.3,38l7.3,20.7l7.1-20.7h5.5l-10.1,26.8h-5L275.9,38H281.3z"/>
		<path class="st0" d="M322.7,60.3v4.6h-18.6V38h18.3v4.6h-13.1V49h11.3v4.2h-11.3v7H322.7z"/>
		<path class="st0" d="M326.8,64.8V38h5.2v22.2h13.7v4.6H326.8z"/>
	</g>
</g>
<g>
	<path class="st0" d="M15,105c-3.5-0.1-7-0.3-10.5-0.4c-0.6,0-1.4-0.8-1.5-1.2c-2.7-9.5-0.3-19.1-1.8-28.6C0.4,70-0.1,65.3,0,60.6
		c0.1-3.3,1.5-6.7,1.6-10l-1.2-11c1.7-6.7,0.8-13.3,1.4-19.9c0.2-1.7,1-3.3,1.1-5c0-1.3-1.2-2.6-1-3.9C2.1,8.8,3,7,3.6,5.1
		c0.3-0.8,0.7-1.7,0.6-2.5c0-1.2,0.3-1.8,2.6-1.8l182.3,0c12.9,0,25.7,0,38.6,0.3c7.1,0.2,14.3,1.1,21.3,0.6c27-1.9,54-0.2,81-0.9
		c4.6-0.1,9.3-0.9,13.9-0.7c5.9,0.3,11.7-0.2,17.6,0c6,0.2,12,0.5,18.1,0.8c0.4,0,1.1,0.3,1.1,0.6c0.5,1.6,1.4,3.3,1.3,4.9
		c-0.2,2.3-1.3,4.6-1.6,6.9c-0.3,1.8-0.1,3.7,0,5.5c0.1,1.7,0.5,3.3,0.5,5c0.2,4.1-0.6,8.2,0.5,12.2c1,3.5,1.9,7.1,0.8,10.4
		c-2.1,6.8-2.3,3.1-0.8,8.2c1.6,5.5,2,11,0.8,16.2c-2.1,9.2-0.1,18.4-1.4,27.6c-0.2,1.8-0.7,3.7-1.3,5.5c-0.1,0.3-1.2,0.7-1.9,0.7
		c-4,0.2-8,0.3-12,0.4c-5.2,0.1-10.4,0.3-15.5,0.3c-7.3,0-14.6-0.4-21.9-0.3c-6.1,0-12.1,0.5-18.2,0.5c-11.3,0-22.7-1-33.8-0.1
		c-11,0.8-22.1,1.1-32.8,0.4c-16.7-1.2-33.3-0.8-50-0.5 M193.3,102.1c9.4,0.1,18.8,0.2,28.3,0.2c8.3,0,16.6-0.5,24.9-0.9
		c10-0.5,20.1-0.3,30.2,0.5c10.9,0.8,22.1,0,33.1,0c5.9,0,11.9,0.6,17.8,0.6c8.1,0,16.2-0.5,24.3-0.5c7.7,0,15.4,0.5,23.2,0.8
		c2.2,0.1,3.2-0.3,2.9-1.8c-0.6-3-1.5-6-1.6-9c-0.3-10.1-0.5-39.9,1.1-44.7c1.5-4.5-1.3-6.1-1.2-16.1c0-3.2,0.3-6.3,1.1-9.5
		c1-3.9-0.1-8.1-0.2-12.1c0-0.2,0.3-0.5,0.6-0.7c0.5-0.5,1.3-0.9,1.4-1.4c0.2-1.1,0.1-2.2,0.2-3.4c0.1-0.9-0.4-1.3-1.9-1.2
		c-4.2,0.3-8.4,0.6-12.7,0.7c-4.5,0-9.1-0.3-13.6-0.4c-1,0-1.9-0.1-2.9,0c-2.2,0.2-4.4,0.7-6.6,0.6c-30.5-0.8-61.1,0.8-91.6-0.9
		c-6.2-0.3-12.5,0.4-18.8,0.5c-9,0.2-18.1,0.2-27.1,0.3c-4.8,0.1-9.5,0.1-14.3,0.1L15,3.3C12.3,3.2,9.7,3,7,2.9
		c-0.4,0-1.1,0.4-1.1,0.7c-0.5,2.9-1,5.9-1.1,8.8c-0.3,4.2,1,8.4,1.1,12.5c0.2,9.5,1,19,0.5,28.5l-0.1,0c0.6,6,0.3,12-0.1,18
		c-0.5,8.2,1.6,16.5-1.3,24.7c-0.6,1.8-0.3,3.7-0.2,5.5c0,0.4,0.8,1,1.2,1c1.7,0,3.4,0,5.2,0L193.3,102.1z"/>
</g>
</svg>
